<svg xmlns="http://www.w3.org/2000/svg">

  <symbol id="profileIco" viewBox="0 0 22.969 23.062">
    <path d="M4.496,8.066 C4.725,8.117 4.954,8.117 5.158,8.117 L5.158,8.628 C5.184,12.413 8.776,16.121 11.477,16.121 C14.178,16.121 17.771,12.413 17.771,8.654 L17.771,8.347 C18.051,8.245 18.306,8.143 18.586,8.040 C18.866,7.913 18.994,7.580 18.866,7.273 C18.764,7.043 18.535,6.915 18.306,6.941 C17.898,2.466 15.478,0.011 11.477,0.011 C7.222,0.011 4.878,2.415 4.623,6.915 C4.343,6.915 4.088,7.094 4.037,7.375 C3.986,7.708 4.190,8.015 4.496,8.066 ZM16.624,8.654 C16.624,11.927 13.414,14.970 11.477,14.970 C9.541,14.970 6.330,11.902 6.330,8.654 L6.330,7.989 C7.732,7.605 8.700,6.455 9.260,5.406 C9.744,6.327 10.458,7.146 11.401,7.759 C12.496,8.475 13.745,8.833 15.095,8.833 C15.579,8.807 16.114,8.756 16.624,8.654 L16.624,8.654 ZM5.897,5.739 C6.687,5.611 7.247,4.614 7.400,4.281 C7.553,4.000 7.426,3.642 7.146,3.514 C6.967,3.438 6.789,3.438 6.636,3.514 C7.553,1.929 9.158,1.136 11.477,1.136 C13.618,1.136 14.968,1.929 15.834,3.080 C15.121,3.156 14.484,2.773 14.178,2.466 C13.949,2.236 13.592,2.236 13.363,2.466 C13.133,2.696 13.133,3.054 13.363,3.284 C13.923,3.847 14.764,4.256 15.656,4.256 C15.936,4.256 16.191,4.205 16.471,4.128 C16.624,4.486 16.777,4.844 16.879,5.227 C15.503,5.483 14.382,5.330 13.567,4.742 C12.292,3.847 12.063,2.236 12.063,2.210 C12.012,1.903 11.732,1.673 11.426,1.724 C11.120,1.776 10.891,2.057 10.917,2.364 C10.917,2.440 11.197,4.486 12.879,5.688 C13.643,6.225 14.586,6.506 15.656,6.506 C16.114,6.506 16.599,6.455 17.108,6.353 C17.159,6.634 17.185,6.915 17.210,7.197 C17.210,7.222 17.236,7.248 17.236,7.273 C14.688,8.092 12.904,7.324 12.012,6.736 C10.636,5.841 9.770,4.333 9.770,2.849 C9.770,2.543 9.515,2.287 9.209,2.287 C8.904,2.287 8.649,2.543 8.649,2.849 C8.649,3.131 8.674,3.438 8.725,3.719 C8.700,3.770 8.674,3.796 8.674,3.847 C8.649,3.975 7.859,6.506 5.795,6.890 C5.795,6.506 5.821,6.097 5.897,5.739 ZM22.688,21.976 L16.471,18.013 L15.401,16.376 C15.248,16.172 14.993,16.070 14.739,16.146 L11.477,17.246 L8.216,16.146 C7.961,16.070 7.706,16.146 7.553,16.376 L6.483,18.013 L0.266,21.976 C0.011,22.156 -0.091,22.513 0.087,22.769 C0.189,22.948 0.393,23.025 0.572,23.025 C0.674,23.025 0.775,22.999 0.877,22.922 L6.891,19.087 L9.464,20.621 C9.694,20.749 9.974,20.723 10.152,20.545 L11.477,19.215 L12.802,20.545 C12.904,20.647 13.057,20.723 13.210,20.723 C13.312,20.723 13.414,20.698 13.516,20.647 L16.089,19.112 L22.102,22.948 C22.204,22.999 22.306,23.050 22.408,23.050 C22.586,23.050 22.790,22.948 22.892,22.795 C23.020,22.488 22.943,22.130 22.688,21.976 ZM9.668,19.419 L7.706,18.243 L8.267,17.374 L10.840,18.243 L9.668,19.419 ZM13.286,19.419 L12.114,18.243 L14.688,17.374 L15.248,18.243 L13.286,19.419 Z" />
  </symbol>


  <symbol id="profileGen" viewBox="0 0 150 150">
    <circle fill="#FD8469" cx="75.054" cy="75.054" r="74.946"/>
    <g>
    	<path fill="#84DBFF" d="M75.408,107.157c-0.118,0-0.237,0.117-0.354,0.117s-0.235-0.117-0.354-0.117H75.408z"/>
    	<path fill="#84DBFF" d="M133.24,122.265C119.55,139.142,98.54,150,75.054,150c-23.487,0-44.495-10.858-58.187-27.735
    		c9.796-13.102,24.786-19.593,37.061-22.78c-0.944,7.79,3.068,18.177,3.186,17.941c4.131-9.443,17.94-10.269,17.94-10.269
    		s13.81,0.825,17.822,10.269c0.117,0.235,4.249-10.151,3.187-17.941C108.455,102.672,123.562,109.163,133.24,122.265z"/>
    </g>
    <path fill="#FFFFFF" d="M91.932,92.168c0,0,0,0,0,0.118c0,1.181-0.59,8.732-16.523,14.753H74.7
    	c-15.933-6.021-16.523-13.572-16.523-14.753c0-0.118,0-0.118,0-0.118c0-1.534,0.354-3.069,0.708-4.603
    	c4.603,5.782,10.15,9.677,16.169,9.677c6.021,0,11.567-3.895,16.17-9.677C91.578,89.099,91.932,90.634,91.932,92.168z"/>
    <g>
    	<path fill="#54C0EB" d="M91.932,92.168c0,0,0.826,8.498-16.878,15.106c0,0,13.81,0.827,17.822,10.269
    		C93.112,117.78,101.019,97.242,91.932,92.168z"/>
    	<path fill="#54C0EB" d="M58.177,92.168c-9.088,5.074-1.181,25.612-0.944,25.258c4.13-9.443,17.821-10.269,17.821-10.269
    		C57.35,100.666,58.177,92.168,58.177,92.168z"/>
    </g>
    <g>
    	<path fill="#FFFFFF" d="M99.839,62.308c-1.062,7.317-4.249,14.163-9.56,19.355c-1.063,1.063-2.007,1.889-3.188,2.715l-1.889-6.02
    		H64.904l-1.889,6.02c-3.776-2.833-11.684-10.74-11.802-18.176c-3.304-42.371,29.152-33.4,29.152-33.4
    		C102.2,31.267,101.492,50.505,99.839,62.308z"/>
    	<path fill="#FFFFFF" d="M104.206,69.979c-1.651,2.714-3.895,4.603-6.02,5.311c0.827-1.888,1.535-3.895,2.125-5.901c0,0,0,0,0-0.118
    		c0.472-1.77,0.944-3.541,1.416-5.311h-0.117c0.471-1.77,0.944-3.541,1.297-5.311c0.473,0,0.944,0.235,1.417,0.472
    		C106.921,60.773,106.803,65.612,104.206,69.979z"/>
    	<path fill="#FFFFFF" d="M51.921,75.29c-2.125-0.708-4.367-2.597-6.02-5.311c-2.714-4.367-2.714-9.206-0.118-10.74
    		c0.237-0.118,0.354-0.236,0.59-0.236c1.417,5.547,3.069,9.678,3.423,10.504C50.387,71.396,51.095,73.402,51.921,75.29z"/>
    </g>
    <path id="SVGCleanerId_0" fill="#324A5E" d="M87.919,20.999c0.944-10.859-16.288-10.15-16.288-10.15
    	c-26.083,3.777-28.916,28.09-28.916,28.09l3.541-4.249c-5.547,12.156,2.833,33.047,3.541,34.699
    	c4.367,14.518,14.045,27.854,25.257,27.854c11.213,0,20.891-13.336,25.258-27.854l0,0c0,0,0,0,0-0.118
    	c0.472-1.77,0.944-3.541,1.299-5.311h-0.118c2.359-9.442,4.957-19.002,4.957-19.002C113.176,11.084,87.919,20.999,87.919,20.999z
    	 M99.839,62.308c-1.062,7.317-4.249,14.163-9.56,19.355c-1.063,1.063-2.125,1.889-3.188,2.715l-1.889-5.9H64.904l-1.889,6.019
    	c-3.776-2.833-6.963-6.729-9.56-11.213c-1.181-2.36-1.889-4.838-2.243-6.963c-3.304-42.371,29.152-33.401,29.152-33.401
    	C102.2,31.267,101.492,50.505,99.839,62.308z"/>
    <g>
    	<path id="SVGCleanerId_0_1_" fill="#324A5E" d="M87.919,20.999c0.944-10.859-16.288-10.15-16.288-10.15
    		c-26.083,3.777-28.916,28.09-28.916,28.09l3.541-4.249c-5.547,12.156,2.833,33.047,3.541,34.699
    		c4.367,14.518,14.045,27.854,25.257,27.854c11.213,0,20.891-13.336,25.258-27.854l0,0c0,0,0,0,0-0.118
    		c0.472-1.77,0.944-3.541,1.299-5.311h-0.118c2.359-9.442,4.957-19.002,4.957-19.002C113.176,11.084,87.919,20.999,87.919,20.999z
    		 M99.839,62.308c-1.062,7.317-4.249,14.163-9.56,19.355c-1.063,1.063-2.125,1.889-3.188,2.715l-1.889-5.9H64.904l-1.889,6.019
    		c-3.776-2.833-6.963-6.729-9.56-11.213c-1.181-2.36-1.889-4.838-2.243-6.963c-3.304-42.371,29.152-33.401,29.152-33.401
    		C102.2,31.267,101.492,50.505,99.839,62.308z"/>
    </g>
    <path fill="#324A5E" d="M87.919,20.999c0.944-10.859-16.288-10.15-16.288-10.15c-26.083,3.777-28.916,28.09-28.916,28.09
    	l3.541-4.249c-5.547,12.156,2.833,33.047,3.541,34.699c4.367,14.518,14.045,27.854,25.257,27.854
    	c11.213,0,20.891-13.336,25.258-27.854l0,0c0,0,0,0,0-0.118c0.472-1.77,0.944-3.541,1.299-5.311h-0.118
    	c2.359-9.442,4.957-19.002,4.957-19.002C113.176,11.084,87.919,20.999,87.919,20.999z M99.839,62.308
    	c-1.062,7.317-4.249,14.163-9.56,19.355c-1.063,1.063-2.125,1.889-3.188,2.715l-1.889-5.9H64.904l-1.889,6.019
    	c-3.776-2.833-11.684-10.741-11.802-18.176c-3.304-42.371,29.152-33.401,29.152-33.401C102.2,31.267,101.492,50.505,99.839,62.308z"
    	/>
    <path fill="#FFFFFF" d="M66.792,82.489c2.006,2.243,4.958,3.777,8.262,3.777c3.305,0,6.256-1.417,8.262-3.777H66.792z"/>
  </symbol>

  <symbol id="storyIco" viewBox="0 0 150 150">
    <g>
    	<path fill="#FBB03B" d="M120.531,25.741v112.541c0,1.295-1.049,2.344-2.344,2.344H40.844v4.688h84.375V25.768l-4.661-0.026
    		C120.549,25.742,120.54,25.741,120.531,25.741z"/>
    	<path fill="#FCC062" d="M115.844,135.938V18.75h-4.688v110.156c0,1.295-1.049,2.344-2.344,2.344h-75v4.688H115.844L115.844,135.938
    		z"/>
    	<path fill="#FDD089" d="M106.469,126.563V11.719H39.953v16.968c0,1.613,1.312,2.925,2.925,2.925s2.925-1.312,2.925-2.925V18.149
    		c0-1.294,1.049-2.344,2.343-2.344s2.344,1.049,2.344,2.344v10.537c0,4.198-3.415,7.613-7.612,7.613
    		c-4.198,0-7.613-3.415-7.613-7.613V11.719h-8.483v114.844H106.469z M73.657,75H59.594c-1.294,0-2.343-1.05-2.343-2.344
    		s1.049-2.343,2.343-2.343h14.063c1.294,0,2.343,1.049,2.343,2.343C76,73.951,74.951,75,73.657,75z M50.219,51.563h32.813
    		c1.295,0,2.344,1.049,2.344,2.344s-1.049,2.344-2.344,2.344H50.219c-1.294,0-2.344-1.049-2.344-2.344S48.924,51.563,50.219,51.563z
    		 M50.219,60.938h32.813c1.295,0,2.344,1.049,2.344,2.344s-1.049,2.344-2.344,2.344H50.219c-1.294,0-2.344-1.049-2.344-2.344
    		S48.924,60.938,50.219,60.938z"/>
    	<path d="M127.576,21.094l-6.992-0.039c-0.006,0-0.01,0-0.014,0c-0.014,0-0.025,0.002-0.039,0.002v-4.651
    		c0-1.294-1.049-2.344-2.344-2.344h-7.031V9.375c0-1.294-1.049-2.344-2.344-2.344H50.466C50.167,3.104,46.88,0,42.878,0
    		s-7.29,3.104-7.588,7.031H24.438c-1.294,0-2.343,1.049-2.343,2.344v119.531c0,1.295,1.049,2.344,2.343,2.344h4.688v7.031
    		c0,1.294,1.049,2.344,2.344,2.344h4.688v7.031c0,1.295,1.049,2.344,2.344,2.344h89.063c1.294,0,2.344-1.049,2.344-2.344V23.438
    		C129.906,22.148,128.865,21.101,127.576,21.094z M125.219,145.313H40.844v-4.688h77.343c1.295,0,2.344-1.05,2.344-2.344V25.741
    		c0.009,0,0.018,0.002,0.026,0.002l4.661,0.026V145.313z M26.782,11.719h8.484v16.968c0,4.198,3.415,7.613,7.612,7.613
    		s7.612-3.415,7.612-7.613V18.149c0-1.294-1.049-2.344-2.344-2.344c-1.294,0-2.344,1.049-2.344,2.344v10.537
    		c0,1.613-1.312,2.925-2.925,2.925s-2.924-1.312-2.924-2.925V11.719h66.515v114.844H26.782V11.719z M33.813,131.25h75
    		c1.295,0,2.344-1.049,2.344-2.344V18.75h4.688v117.188H33.812L33.813,131.25L33.813,131.25z M42.878,4.688
    		c1.414,0,2.596,1.008,2.866,2.344h-5.733C40.282,5.696,41.464,4.688,42.878,4.688z"/>
    	<path fill="#FFFFFF" d="M50.219,56.25h32.813c1.295,0,2.344-1.049,2.344-2.344s-1.049-2.344-2.344-2.344H50.219
    		c-1.294,0-2.344,1.049-2.344,2.344S48.924,56.25,50.219,56.25z"/>
    	<path fill="#FFFFFF" d="M50.219,65.625h32.813c1.295,0,2.344-1.049,2.344-2.344s-1.049-2.344-2.344-2.344H50.219
    		c-1.294,0-2.344,1.049-2.344,2.344S48.924,65.625,50.219,65.625z"/>
    	<path fill="#FFFFFF" d="M73.657,70.313H59.594c-1.294,0-2.343,1.049-2.343,2.344S58.299,75,59.594,75h14.063
    		C74.951,75,76,73.951,76,72.656S74.951,70.313,73.657,70.313z"/>
    </g>
  </symbol>


</svg>
